<?xml version="1.0" encoding="UTF-8"?>
<svg version="1.1" xmlns="http://www.w3.org/2000/svg" width="512" height="512">
<path d="M0 0 C1.45108658 0.00273422 1.45108658 0.00273422 2.93148804 0.00552368 C17.26440977 0.05095174 31.21023917 0.55983928 45.3125 3.3125 C46.65803955 3.55395752 46.65803955 3.55395752 48.03076172 3.80029297 C107.84088904 14.62287989 165.35495829 48.68064457 202.3125 97.3125 C202.72918945 97.85277832 203.14587891 98.39305664 203.57519531 98.94970703 C211.2584873 108.9447116 218.00092968 119.40459036 224.3125 130.3125 C224.70679199 130.98974121 225.10108398 131.66698242 225.50732422 132.36474609 C238.68961173 155.2833756 247.29510918 180.85822563 252.625 206.6875 C252.77243652 207.39817627 252.91987305 208.10885254 253.07177734 208.84106445 C256.05713787 224.48358366 256.6873098 240.11919606 256.625 256 C256.62226578 257.45108658 256.62226578 257.45108658 256.61947632 258.93148804 C256.57404826 273.26440977 256.06516072 287.21023917 253.3125 301.3125 C253.15152832 302.20952637 252.99055664 303.10655273 252.82470703 304.03076172 C242.00212011 363.84088904 207.94435543 421.35495829 159.3125 458.3125 C158.77222168 458.72918945 158.23194336 459.14587891 157.67529297 459.57519531 C147.6802884 467.2584873 137.22040964 474.00092968 126.3125 480.3125 C125.63525879 480.70679199 124.95801758 481.10108398 124.26025391 481.50732422 C101.3416244 494.68961173 75.76677437 503.29510918 49.9375 508.625 C49.22682373 508.77243652 48.51614746 508.91987305 47.78393555 509.07177734 C32.14141634 512.05713787 16.50580394 512.6873098 0.625 512.625 C-0.34239105 512.62317719 -1.3097821 512.62135437 -2.30648804 512.61947632 C-16.63940977 512.57404826 -30.58523917 512.06516072 -44.6875 509.3125 C-45.58452637 509.15152832 -46.48155273 508.99055664 -47.40576172 508.82470703 C-107.21588904 498.00212011 -164.72995829 463.94435543 -201.6875 415.3125 C-202.10418945 414.77222168 -202.52087891 414.23194336 -202.95019531 413.67529297 C-210.6334873 403.6802884 -217.37592968 393.22040964 -223.6875 382.3125 C-224.08179199 381.63525879 -224.47608398 380.95801758 -224.88232422 380.26025391 C-238.06461173 357.3416244 -246.67010918 331.76677437 -252 305.9375 C-252.14743652 305.22682373 -252.29487305 304.51614746 -252.44677734 303.78393555 C-255.43213787 288.14141634 -256.0623098 272.50580394 -256 256.625 C-255.99817719 255.65760895 -255.99635437 254.6902179 -255.99447632 253.69351196 C-255.94904826 239.36059023 -255.44016072 225.41476083 -252.6875 211.3125 C-252.44604248 209.96696045 -252.44604248 209.96696045 -252.19970703 208.59423828 C-241.37712011 148.78411096 -207.31935543 91.27004171 -158.6875 54.3125 C-158.14722168 53.89581055 -157.60694336 53.47912109 -157.05029297 53.04980469 C-147.0552884 45.3665127 -136.59540964 38.62407032 -125.6875 32.3125 C-125.01025879 31.91820801 -124.33301758 31.52391602 -123.63525391 31.11767578 C-100.7166244 17.93538827 -75.14177437 9.32989082 -49.3125 4 C-48.60182373 3.85256348 -47.89114746 3.70512695 -47.15893555 3.55322266 C-31.51641634 0.56786213 -15.88080394 -0.0623098 0 0 Z " fill="#FEFEFE" transform="translate(255.6875,-0.3125)"/>
<path d="M0 0 C1.45108658 0.00273422 1.45108658 0.00273422 2.93148804 0.00552368 C17.26440977 0.05095174 31.21023917 0.55983928 45.3125 3.3125 C46.65803955 3.55395752 46.65803955 3.55395752 48.03076172 3.80029297 C107.84088904 14.62287989 165.35495829 48.68064457 202.3125 97.3125 C202.72918945 97.85277832 203.14587891 98.39305664 203.57519531 98.94970703 C211.2584873 108.9447116 218.00092968 119.40459036 224.3125 130.3125 C224.70679199 130.98974121 225.10108398 131.66698242 225.50732422 132.36474609 C238.68961173 155.2833756 247.29510918 180.85822563 252.625 206.6875 C252.77243652 207.39817627 252.91987305 208.10885254 253.07177734 208.84106445 C256.05713787 224.48358366 256.6873098 240.11919606 256.625 256 C256.62226578 257.45108658 256.62226578 257.45108658 256.61947632 258.93148804 C256.57404826 273.26440977 256.06516072 287.21023917 253.3125 301.3125 C253.15152832 302.20952637 252.99055664 303.10655273 252.82470703 304.03076172 C242.00212011 363.84088904 207.94435543 421.35495829 159.3125 458.3125 C158.77222168 458.72918945 158.23194336 459.14587891 157.67529297 459.57519531 C147.6802884 467.2584873 137.22040964 474.00092968 126.3125 480.3125 C125.63525879 480.70679199 124.95801758 481.10108398 124.26025391 481.50732422 C101.3416244 494.68961173 75.76677437 503.29510918 49.9375 508.625 C49.22682373 508.77243652 48.51614746 508.91987305 47.78393555 509.07177734 C32.14141634 512.05713787 16.50580394 512.6873098 0.625 512.625 C-0.34239105 512.62317719 -1.3097821 512.62135437 -2.30648804 512.61947632 C-16.63940977 512.57404826 -30.58523917 512.06516072 -44.6875 509.3125 C-45.58452637 509.15152832 -46.48155273 508.99055664 -47.40576172 508.82470703 C-107.21588904 498.00212011 -164.72995829 463.94435543 -201.6875 415.3125 C-202.10418945 414.77222168 -202.52087891 414.23194336 -202.95019531 413.67529297 C-210.6334873 403.6802884 -217.37592968 393.22040964 -223.6875 382.3125 C-224.08179199 381.63525879 -224.47608398 380.95801758 -224.88232422 380.26025391 C-238.06461173 357.3416244 -246.67010918 331.76677437 -252 305.9375 C-252.14743652 305.22682373 -252.29487305 304.51614746 -252.44677734 303.78393555 C-255.43213787 288.14141634 -256.0623098 272.50580394 -256 256.625 C-255.99817719 255.65760895 -255.99635437 254.6902179 -255.99447632 253.69351196 C-255.94904826 239.36059023 -255.44016072 225.41476083 -252.6875 211.3125 C-252.44604248 209.96696045 -252.44604248 209.96696045 -252.19970703 208.59423828 C-241.37712011 148.78411096 -207.31935543 91.27004171 -158.6875 54.3125 C-158.14722168 53.89581055 -157.60694336 53.47912109 -157.05029297 53.04980469 C-147.0552884 45.3665127 -136.59540964 38.62407032 -125.6875 32.3125 C-125.01025879 31.91820801 -124.33301758 31.52391602 -123.63525391 31.11767578 C-100.7166244 17.93538827 -75.14177437 9.32989082 -49.3125 4 C-48.60182373 3.85256348 -47.89114746 3.70512695 -47.15893555 3.55322266 C-31.51641634 0.56786213 -15.88080394 -0.0623098 0 0 Z M-38.6875 71.3125 C-39.81929687 71.67472656 -40.95109375 72.03695312 -42.1171875 72.41015625 C-54.06400016 76.6359473 -65.05783296 83.09119377 -74.6875 91.3125 C-75.48542969 91.96605469 -76.28335938 92.61960937 -77.10546875 93.29296875 C-91.65152929 105.67403423 -101.67664634 122.30279396 -107.6875 140.3125 C-107.99558594 141.22515625 -108.30367188 142.1378125 -108.62109375 143.078125 C-110.85907389 150.40242365 -111.36464336 157.68640352 -111.6875 165.3125 C-112.32816406 165.10753906 -112.96882813 164.90257812 -113.62890625 164.69140625 C-114.49386719 164.42199219 -115.35882813 164.15257812 -116.25 163.875 C-117.09691406 163.60816406 -117.94382812 163.34132813 -118.81640625 163.06640625 C-125.55977018 161.2956998 -132.14210726 161.15784117 -139.0625 161.1875 C-140.40441406 161.18169922 -140.40441406 161.18169922 -141.7734375 161.17578125 C-165.12150285 161.20971739 -184.32311818 170.55482087 -201.3125 186.4375 C-217.78835209 203.63099356 -225.21249579 224.86776025 -225.0390625 248.43481445 C-224.52368198 271.30303573 -215.72437123 291.01099393 -199.6875 307.3125 C-198.54667969 308.47265625 -198.54667969 308.47265625 -197.3828125 309.65625 C-180.01286876 326.28583548 -156.93237747 332.96903015 -133.3125 332.5 C-131.97918216 332.48489296 -130.64584733 332.47121542 -129.3125 332.45898438 C-126.10371435 332.42410627 -122.8958437 332.37510026 -119.6875 332.3125 C-119.66550537 333.71544312 -119.66550537 333.71544312 -119.64306641 335.14672852 C-118.92427363 365.063755 -103.57098389 392.65882061 -82.6875 413.3125 C-56.07211474 437.90004639 -25.47927552 446.26862391 10.12792969 445.44433594 C34.77746138 444.42388614 58.49776701 434.03047887 77.3125 418.3125 C78.29605469 417.49265625 79.27960938 416.6728125 80.29296875 415.828125 C102.4878828 396.72182359 117.75660271 368.70531885 120.3125 339.3125 C120.32152035 336.9791841 120.32240066 334.64581233 120.3125 332.3125 C122.16258667 332.35177612 122.16258667 332.35177612 124.05004883 332.3918457 C128.72238276 332.48384847 133.39464092 332.54028209 138.06762695 332.5871582 C140.07199662 332.61196674 142.07627923 332.6458252 144.08032227 332.68969727 C165.22782038 333.14032082 185.12603747 330.28659772 201.625 315.9375 C203.20626417 314.41508547 204.76968752 312.87386864 206.3125 311.3125 C207.37597656 310.28189453 207.37597656 310.28189453 208.4609375 309.23046875 C221.54359374 295.72174899 225.62691721 278.14613526 225.46484375 259.921875 C225.27649812 255.45953249 224.61672028 251.56798446 223.3125 247.3125 C222.92771484 245.91451172 222.92771484 245.91451172 222.53515625 244.48828125 C217.32777227 227.03348774 205.04196994 213.23444358 189.14453125 204.58984375 C176.43710607 198.41072541 165.20802898 196.83638416 151.3125 197.3125 C151.47105469 196.64734375 151.62960937 195.9821875 151.79296875 195.296875 C153.44015864 185.83482181 153.64155126 175.58000008 148.3125 167.3125 C147.88839844 166.62929687 147.46429688 165.94609375 147.02734375 165.2421875 C142.26620721 158.26626043 135.42755722 152.05272639 127.1484375 149.7578125 C114.89182749 147.83322085 104.87537557 148.35342903 94.3125 155.3125 C94.30992187 154.71566406 94.30734375 154.11882812 94.3046875 153.50390625 C93.46506732 134.66842683 83.35529891 117.25554331 71.3125 103.3125 C70.71050781 102.56613281 70.10851562 101.81976563 69.48828125 101.05078125 C54.44355026 82.97817988 30.0837298 70.26466054 6.78173828 67.52783203 C-8.72770771 66.17531756 -23.82529298 66.5004266 -38.6875 71.3125 Z " fill="#4F5565" transform="translate(255.6875,-0.3125)"/>
<path d="M0 0 C33.57894247 11.61597138 58.95759178 33.26894178 74.97265625 65.2109375 C81.25263639 78.40271447 84.97989861 93.34881037 85.6875 107.9296875 C85.76677734 109.55390625 85.76677734 109.55390625 85.84765625 111.2109375 C86.67212955 144.76341607 73.99301483 176.52635225 50.95336914 200.75317383 C37.78938302 214.18112671 22.06261131 223.08298936 4.6875 229.9296875 C3.94628906 230.23648438 3.20507812 230.54328125 2.44140625 230.859375 C-24.5326979 241.06010834 -58.34989061 237.96060227 -84.26513672 226.38378906 C-94.9627191 221.42219764 -104.3186372 215.56041797 -113.3125 207.9296875 C-114.1375 207.24003906 -114.9625 206.55039062 -115.8125 205.83984375 C-136.69054689 187.79990636 -152.26283527 160.1059232 -155.16015625 132.31323242 C-156.27107654 114.93195875 -156.92739133 96.59365235 -151.3125 79.9296875 C-151.10351074 79.29401855 -150.89452148 78.65834961 -150.67919922 78.00341797 C-139.71820425 45.69516689 -116.2591341 20.86053194 -86.05859375 5.6484375 C-80.0309135 2.77523795 -73.71066192 0.80551225 -67.3125 -1.0703125 C-66.12269531 -1.43253906 -64.93289062 -1.79476562 -63.70703125 -2.16796875 C-60.73333542 -2.95844486 -58.05709447 -3.40935458 -55 -3.6328125 C-36.27825972 -5.03765978 -18.54996218 -5.62295729 0 0 Z " fill="#F8B516" transform="translate(291.3125,209.0703125)"/>
<path d="M0 0 C14.42529572 12.50850985 26.90711967 32.13550002 28.3828125 51.609375 C29.55993645 75.76984399 25.33380031 97.05045902 9.1640625 115.72265625 C8.56851563 116.51542969 7.97296875 117.30820312 7.359375 118.125 C-2.63191481 129.94743367 -17.90888177 138.2648391 -32.8359375 141.72265625 C-34.03669922 142.02816406 -34.03669922 142.02816406 -35.26171875 142.33984375 C-54.52458441 146.60748925 -76.67410067 143.9100024 -93.60791016 133.64892578 C-114.27574979 120.39041872 -126.55556798 103.17296306 -132.8359375 79.72265625 C-133.01479492 79.11228516 -133.19365234 78.50191406 -133.37792969 77.87304688 C-136.22030674 64.52781389 -135.28612016 47.25499716 -129.8359375 34.72265625 C-129.4332666 33.7795459 -129.4332666 33.7795459 -129.02246094 32.81738281 C-119.51380461 10.98854054 -103.87278146 -4.80811538 -81.8359375 -14.27734375 C-54.09364628 -24.41151406 -22.72680818 -18.25031566 0 0 Z " fill="#FAD303" transform="translate(308.8359375,262.27734375)"/>
<path d="M0 0 C33.57894247 11.61597138 58.95759178 33.26894178 74.97265625 65.2109375 C81.25263639 78.40271447 84.97989861 93.34881037 85.6875 107.9296875 C85.76677734 109.55390625 85.76677734 109.55390625 85.84765625 111.2109375 C86.67212955 144.76341607 73.99301483 176.52635225 50.95336914 200.75317383 C37.78938302 214.18112671 22.06261131 223.08298936 4.6875 229.9296875 C3.94628906 230.23648438 3.20507812 230.54328125 2.44140625 230.859375 C-24.5326979 241.06010834 -58.34989061 237.96060227 -84.26513672 226.38378906 C-94.9627191 221.42219764 -104.3186372 215.56041797 -113.3125 207.9296875 C-114.1375 207.24003906 -114.9625 206.55039062 -115.8125 205.83984375 C-136.69054689 187.79990636 -152.26283527 160.1059232 -155.16015625 132.31323242 C-156.27107654 114.93195875 -156.92739133 96.59365235 -151.3125 79.9296875 C-151.10351074 79.29401855 -150.89452148 78.65834961 -150.67919922 78.00341797 C-139.71820425 45.69516689 -116.2591341 20.86053194 -86.05859375 5.6484375 C-80.0309135 2.77523795 -73.71066192 0.80551225 -67.3125 -1.0703125 C-66.12269531 -1.43253906 -64.93289062 -1.79476562 -63.70703125 -2.16796875 C-60.73333542 -2.95844486 -58.05709447 -3.40935458 -55 -3.6328125 C-36.27825972 -5.03765978 -18.54996218 -5.62295729 0 0 Z M-106.3125 38.9296875 C-107.07175781 39.59355469 -107.83101562 40.25742188 -108.61328125 40.94140625 C-123.4429317 54.77012115 -132.60862114 73.44537413 -137.3125 92.9296875 C-137.48982666 93.57365479 -137.66715332 94.21762207 -137.84985352 94.88110352 C-139.5762162 101.61061431 -139.65824386 108.19668305 -139.625 115.1171875 C-139.62008545 116.31956055 -139.6151709 117.52193359 -139.61010742 118.76074219 C-139.49804001 127.24108417 -138.84886891 134.79898876 -136.3125 142.9296875 C-135.9721875 144.12980469 -135.631875 145.32992187 -135.28125 146.56640625 C-131.11638658 160.25698771 -124.78783029 172.17048612 -115.3125 182.9296875 C-114.63703125 183.74824219 -113.9615625 184.56679688 -113.265625 185.41015625 C-101.34262001 199.44362015 -84.10250401 210.9167768 -66.3125 215.9296875 C-65.07113281 216.29964844 -63.82976562 216.66960937 -62.55078125 217.05078125 C-45.63578225 221.67417489 -26.09422369 222.36230316 -9.3125 216.9296875 C-8.07113281 216.60097656 -6.82976562 216.27226562 -5.55078125 215.93359375 C8.94619125 211.99366229 21.39431614 204.81122338 32.6875 194.9296875 C33.4196875 194.34058594 34.151875 193.75148438 34.90625 193.14453125 C50.53665209 180.18340557 60.3195759 162.2664141 65.6875 142.9296875 C66.0071875 141.79660156 66.326875 140.66351563 66.65625 139.49609375 C73.01262856 113.09946611 67.76213304 85.63814701 54.6953125 62.19140625 C38.91457394 36.55538155 14.64230056 20.22111491 -14.3125 12.9296875 C-48.38600086 7.17749434 -80.51772718 16.02268047 -106.3125 38.9296875 Z " fill="#FAD204" transform="translate(291.3125,209.0703125)"/>
<path d="M0 0 C3.80915027 1.17737372 5.32439462 1.6815314 7.4375 5.0625 C7.75624291 8.09317032 7.67092683 11.02795118 7.4375 14.0625 C8.2625 14.248125 9.0875 14.43375 9.9375 14.625 C14.62509045 16.55026036 18.29002664 19.04926919 21.4375 23.0625 C21.72063821 27.23878866 21.11224264 29.08787174 18.75 32.5 C15.6208654 34.61428013 14.16013352 34.71943533 10.4375 34.0625 C8.77734375 32.93359375 8.77734375 32.93359375 7.0625 31.5625 C4.46618275 29.55651537 2.67452783 28.62604445 -0.625 28.4375 C-4.3312097 29.02578725 -6.73791921 29.66735404 -9.48828125 32.3046875 C-11.73227185 35.97667212 -11.4883548 39.97666253 -10.5625 44.0625 C-8.31192433 47.15048674 -8.31192433 47.15048674 -5.5625 49.0625 C-5.0675 49.5575 -5.0675 49.5575 -4.5625 50.0625 C-3.08489035 50.16996252 -1.60510081 50.24784661 -0.125 50.3125 C7.04538909 50.96995688 12.72456307 53.83186296 18.25 58.375 C24.71096498 66.31275698 27.37255087 72.736286 26.4375 83.0625 C24.6578543 90.79319025 20.59463012 96.15603694 14.4375 101.0625 C11.73271293 102.66078327 10.64827798 103.0625 7.4375 103.0625 C7.47875 104.114375 7.52 105.16625 7.5625 106.25 C7.44453442 109.84795028 7.13520937 111.93514064 5.4375 115.0625 C1.70494552 117.55086965 -0.14690935 117.60476552 -4.5625 117.0625 C-6.9375 115.0625 -6.9375 115.0625 -8.5625 112.0625 C-8.60375 110.763125 -8.645 109.46375 -8.6875 108.125 C-8.73196801 106.02336354 -8.73196801 106.02336354 -9.5625 104.0625 C-11.96263024 102.1760667 -14.38451983 100.83875839 -17.1171875 99.484375 C-19.7558745 97.9500586 -21.00365542 96.66561911 -22.5625 94.0625 C-23.09005517 90.44497881 -23.02182313 88.76067115 -21 85.6875 C-17.59753891 83.41919261 -15.58531242 83.50762932 -11.5625 84.0625 C-10.61375 84.7225 -9.665 85.3825 -8.6875 86.0625 C-4.58078105 88.69080013 -1.32402948 88.95693095 3.4375 88.0625 C6.30779869 86.26856332 7.92881638 85.07986724 9.4375 82.0625 C9.63508231 79.98685324 9.63508231 79.98685324 9.625 77.6875 C9.63917969 76.91664063 9.65335937 76.14578125 9.66796875 75.3515625 C9.32506862 71.90172914 9.32506862 71.90172914 7.4375 69.0625 C4.62780118 68.0735115 1.74271052 67.62493146 -1.1875 67.125 C-11.55178958 65.07759466 -18.38216718 61.93830508 -24.5625 53.0625 C-28.54722336 46.28847029 -28.7056499 38.85284243 -26.90625 31.3125 C-24.33728137 24.04851975 -20.03038884 19.50578532 -13.8125 15.125 C-11.5625 14.0625 -11.5625 14.0625 -8.5625 14.0625 C-8.62050781 13.47082031 -8.67851562 12.87914062 -8.73828125 12.26953125 C-8.98861334 7.88514351 -8.98203722 5.69816245 -6.5 1.9375 C-3.5625 0.0625 -3.5625 0.0625 0 0 Z " fill="#FBFBF8" transform="translate(256.5625,265.9375)"/>
</svg>
